<svg width="12" height="12" viewBox="0 0 12 12" fill="none" xmlns="http://www.w3.org/2000/svg">
<rect x="0.25" y="0.25" width="11.5" height="11.5" rx="0.75" stroke="#013984" stroke-width="0.5"/>
<path d="M9.1875 6.25001H8.125V6.18751C8.125 6.13778 8.10525 6.09009 8.07008 6.05493C8.03492 6.01977 7.98723 6.00001 7.9375 6.00001H5.9375C5.88777 6.00001 5.84008 6.01977 5.80492 6.05493C5.76975 6.09009 5.75 6.13778 5.75 6.18751V6.25001H3.625V4.81251C3.625 4.69648 3.67109 4.5852 3.75314 4.50315C3.83519 4.42111 3.94647 4.37501 4.0625 4.37501C4.16475 4.37482 4.26405 4.4093 4.34419 4.47281C4.42432 4.53631 4.48057 4.62511 4.50375 4.7247C4.50829 4.74916 4.51765 4.77248 4.53129 4.79328C4.54493 4.81409 4.56257 4.83198 4.58319 4.8459C4.60381 4.85982 4.62699 4.8695 4.65139 4.87437C4.67579 4.87924 4.70091 4.87921 4.7253 4.87427C4.74968 4.86934 4.77284 4.8596 4.79342 4.84562C4.81401 4.83165 4.8316 4.81372 4.84519 4.79287C4.85877 4.77203 4.86807 4.74869 4.87255 4.72422C4.87702 4.69975 4.87658 4.67463 4.87125 4.65032C4.83169 4.46551 4.72968 4.29996 4.58238 4.18152C4.43509 4.06308 4.2515 3.99898 4.0625 4.00001C3.84701 4.00001 3.64035 4.08561 3.48798 4.23799C3.3356 4.39036 3.25 4.59702 3.25 4.81251V6.25001H2.1875C2.13777 6.25001 2.09008 6.26977 2.05492 6.30493C2.01975 6.34009 2 6.38778 2 6.43751V7.68751C2.0005 8.13491 2.17845 8.56385 2.49481 8.88021C2.81117 9.19657 3.2401 9.37452 3.6875 9.37501H3.75V9.93751C3.75 9.98724 3.76975 10.0349 3.80492 10.0701C3.84008 10.1053 3.88777 10.125 3.9375 10.125C3.98723 10.125 4.03492 10.1053 4.07008 10.0701C4.10525 10.0349 4.125 9.98724 4.125 9.93751V9.37501H7.25V9.93751C7.25 9.98724 7.26975 10.0349 7.30492 10.0701C7.34008 10.1053 7.38777 10.125 7.4375 10.125C7.48723 10.125 7.53492 10.1053 7.57008 10.0701C7.60525 10.0349 7.625 9.98724 7.625 9.93751V9.37501H7.6875C8.1349 9.37452 8.56383 9.19657 8.88019 8.88021C9.19655 8.56385 9.3745 8.13491 9.375 7.68751V6.43751C9.375 6.38778 9.35525 6.34009 9.32008 6.30493C9.28492 6.26977 9.23723 6.25001 9.1875 6.25001ZM6.125 6.37501H7.75V7.50001H6.125V6.37501ZM9 7.68751C9 8.03561 8.86172 8.36945 8.61558 8.61559C8.36944 8.86173 8.0356 9.00001 7.6875 9.00001H3.6875C3.3394 9.00001 3.00556 8.86173 2.75942 8.61559C2.51328 8.36945 2.375 8.03561 2.375 7.68751V6.62501H5.75V7.68751C5.75 7.73724 5.76975 7.78493 5.80492 7.82009C5.84008 7.85526 5.88777 7.87501 5.9375 7.87501H7.9375C7.98723 7.87501 8.03492 7.85526 8.07008 7.82009C8.10525 7.78493 8.125 7.73724 8.125 7.68751V6.62501H9V7.68751Z" fill="#013984"/>
</svg>
