<svg width="12" height="12" viewBox="0 0 12 12" fill="none" xmlns="http://www.w3.org/2000/svg">
<rect x="0.25" y="0.25" width="11.5" height="11.5" rx="0.75" stroke="#013984" stroke-width="0.5"/>
<path d="M2 10V7.72727C2 7.59273 2.03793 7.44939 2.11378 7.29727C2.18963 7.14515 2.29985 7.03091 2.44444 6.95455V5.90909C2.44444 5.65273 2.52993 5.43712 2.70089 5.26227C2.87185 5.08742 3.08267 5 3.33333 5H5.33333C5.48652 5 5.61733 5.03227 5.72578 5.09682C5.83393 5.16106 5.92533 5.25 6 5.36364C6.07467 5.25 6.16607 5.16106 6.27422 5.09682C6.38267 5.03227 6.51348 5 6.66667 5H8.66667C8.91733 5 9.12815 5.08742 9.29911 5.26227C9.47007 5.43712 9.55556 5.65273 9.55556 5.90909V6.95455C9.70044 7.03091 9.81067 7.14515 9.88622 7.29727C9.96207 7.44939 10 7.59273 10 7.72727V10H9.55556V9.09091H2.44444V10H2ZM6.22222 6.81818H9.11111V5.90909C9.11111 5.7803 9.06844 5.67242 8.98311 5.58545C8.89778 5.49848 8.7923 5.45485 8.66667 5.45455H6.66667C6.54074 5.45455 6.43526 5.49818 6.35022 5.58545C6.26519 5.67273 6.22252 5.78061 6.22222 5.90909V6.81818ZM2.88889 6.81818H5.77778V5.90909C5.77778 5.7803 5.73511 5.67242 5.64978 5.58545C5.56444 5.49848 5.45896 5.45485 5.33333 5.45455H3.33333C3.20741 5.45455 3.10193 5.49818 3.01689 5.58545C2.93185 5.67273 2.88919 5.78061 2.88889 5.90909V6.81818ZM2.44444 8.63636H9.55556V7.72727C9.55556 7.59848 9.51289 7.49061 9.42756 7.40364C9.34222 7.31667 9.23674 7.27303 9.11111 7.27273H2.88889C2.76296 7.27273 2.65748 7.31636 2.57244 7.40364C2.48741 7.49091 2.44474 7.59879 2.44444 7.72727V8.63636Z" fill="#013984"/>
</svg>
