<svg width="35" height="35" viewBox="0 0 35 35" fill="none" xmlns="http://www.w3.org/2000/svg">
<path d="M17.5 23.3334C19.0471 23.3334 20.5308 22.7188 21.6248 21.6249C22.7188 20.5309 23.3334 19.0472 23.3334 17.5001C23.3334 15.953 22.7188 14.4693 21.6248 13.3753C20.5308 12.2813 19.0471 11.6667 17.5 11.6667C15.9529 11.6667 14.4692 12.2813 13.3752 13.3753C12.2813 14.4693 11.6667 15.953 11.6667 17.5001C11.6667 19.0472 12.2813 20.5309 13.3752 21.6249C14.4692 22.7188 15.9529 23.3334 17.5 23.3334Z" stroke="white" stroke-width="1.5" stroke-linecap="round" stroke-linejoin="round"/>
<path d="M4.375 23.3333V11.6667C4.375 9.7328 5.14323 7.87813 6.51068 6.51068C7.87813 5.14323 9.7328 4.375 11.6667 4.375H23.3333C25.2672 4.375 27.1219 5.14323 28.4893 6.51068C29.8568 7.87813 30.625 9.7328 30.625 11.6667V23.3333C30.625 25.2672 29.8568 27.1219 28.4893 28.4893C27.1219 29.8568 25.2672 30.625 23.3333 30.625H11.6667C9.7328 30.625 7.87813 29.8568 6.51068 28.4893C5.14323 27.1219 4.375 25.2672 4.375 23.3333Z" stroke="white" stroke-width="1.5"/>
<path d="M25.5208 9.49337L25.535 9.47778" stroke="white" stroke-width="1.5" stroke-linecap="round" stroke-linejoin="round"/>
</svg>
