<svg width="589" height="681" viewBox="0 0 589 681" fill="none" xmlns="http://www.w3.org/2000/svg">
<g filter="url(#filter0_d_134_122)">
<line x1="145.88" y1="228.788" x2="145.88" y2="368.267" stroke="#F8F9FF" stroke-width="25" stroke-linecap="round"/>
</g>
<g filter="url(#filter1_d_134_122)">
<line x1="465.458" y1="228.788" x2="465.458" y2="368.267" stroke="#F8F9FF" stroke-width="25" stroke-linecap="round"/>
</g>
<g filter="url(#filter2_d_134_122)">
<line x1="227.683" y1="182.76" x2="227.683" y2="414.077" stroke="#F8F9FF" stroke-width="25" stroke-linecap="round"/>
</g>
<g filter="url(#filter3_d_134_122)">
<line x1="306.869" y1="135.968" x2="306.869" y2="460.977" stroke="#F8F9FF" stroke-width="25" stroke-linecap="round"/>
</g>
<g filter="url(#filter4_d_134_122)">
<line x1="385.945" y1="12.5" x2="385.945" y2="414.077" stroke="#F8F9FF" stroke-width="25" stroke-linecap="round"/>
</g>
<g filter="url(#filter5_d_134_122)">
<path d="M565.737 298.418L294.369 28.0312L23 298.418" stroke="#F8F9FF" stroke-width="25" stroke-linecap="round"/>
</g>
<path d="M25.55 577V555.7H34.43C35.37 555.7 36.23 555.9 37.01 556.3C37.79 556.68 38.47 557.2 39.05 557.86C39.63 558.5 40.08 559.23 40.4 560.05C40.72 560.85 40.88 561.67 40.88 562.51C40.88 563.67 40.62 564.78 40.1 565.84C39.58 566.88 38.85 567.73 37.91 568.39C36.97 569.03 35.87 569.35 34.61 569.35H28.25V577H25.55ZM28.25 566.95H34.46C35.2 566.95 35.84 566.75 36.38 566.35C36.94 565.95 37.37 565.41 37.67 564.73C37.99 564.05 38.15 563.31 38.15 562.51C38.15 561.67 37.97 560.92 37.61 560.26C37.25 559.58 36.78 559.05 36.2 558.67C35.62 558.29 34.98 558.1 34.28 558.1H28.25V566.95ZM44.2414 577V555.7H53.3614C54.3014 555.7 55.1614 555.9 55.9414 556.3C56.7214 556.68 57.4014 557.2 57.9814 557.86C58.5614 558.5 59.0114 559.23 59.3314 560.05C59.6514 560.85 59.8114 561.67 59.8114 562.51C59.8114 563.49 59.6214 564.42 59.2414 565.3C58.8814 566.18 58.3614 566.93 57.6814 567.55C57.0214 568.17 56.2414 568.6 55.3414 568.84L60.5014 577H57.4414L52.5814 569.35H46.9414V577H44.2414ZM46.9414 566.95H53.3914C54.1314 566.95 54.7714 566.75 55.3114 566.35C55.8714 565.93 56.3014 565.38 56.6014 564.7C56.9214 564.02 57.0814 563.29 57.0814 562.51C57.0814 561.71 56.9014 560.98 56.5414 560.32C56.1814 559.64 55.7114 559.1 55.1314 558.7C54.5514 558.3 53.9114 558.1 53.2114 558.1H46.9414V566.95ZM72.5982 577.15C71.0982 577.15 69.7382 576.85 68.5182 576.25C67.2982 575.65 66.2382 574.84 65.3382 573.82C64.4582 572.78 63.7782 571.62 63.2982 570.34C62.8182 569.04 62.5782 567.71 62.5782 566.35C62.5782 564.93 62.8282 563.58 63.3282 562.3C63.8482 561 64.5582 559.85 65.4582 558.85C66.3782 557.83 67.4482 557.03 68.6682 556.45C69.8882 555.85 71.2182 555.55 72.6582 555.55C74.1582 555.55 75.5182 555.86 76.7382 556.48C77.9582 557.1 79.0082 557.93 79.8882 558.97C80.7682 560.01 81.4482 561.17 81.9282 562.45C82.4082 563.73 82.6482 565.04 82.6482 566.38C82.6482 567.8 82.3982 569.16 81.8982 570.46C81.3982 571.74 80.6882 572.89 79.7682 573.91C78.8682 574.91 77.8082 575.7 76.5882 576.28C75.3682 576.86 74.0382 577.15 72.5982 577.15ZM65.3082 566.35C65.3082 567.43 65.4782 568.48 65.8182 569.5C66.1782 570.5 66.6782 571.39 67.3182 572.17C67.9582 572.95 68.7282 573.57 69.6282 574.03C70.5282 574.49 71.5282 574.72 72.6282 574.72C73.7682 574.72 74.7882 574.48 75.6882 574C76.5882 573.52 77.3482 572.88 77.9682 572.08C78.6082 571.28 79.0882 570.38 79.4082 569.38C79.7482 568.38 79.9182 567.37 79.9182 566.35C79.9182 565.27 79.7382 564.23 79.3782 563.23C79.0382 562.23 78.5382 561.34 77.8782 560.56C77.2382 559.76 76.4682 559.14 75.5682 558.7C74.6882 558.24 73.7082 558.01 72.6282 558.01C71.4882 558.01 70.4682 558.25 69.5682 558.73C68.6682 559.19 67.8982 559.82 67.2582 560.62C66.6382 561.42 66.1582 562.32 65.8182 563.32C65.4782 564.3 65.3082 565.31 65.3082 566.35ZM86.3996 577V555.7H95.2796C96.2196 555.7 97.0796 555.9 97.8596 556.3C98.6396 556.68 99.3196 557.2 99.8996 557.86C100.48 558.5 100.93 559.23 101.25 560.05C101.57 560.85 101.73 561.67 101.73 562.51C101.73 563.67 101.47 564.78 100.95 565.84C100.43 566.88 99.6996 567.73 98.7596 568.39C97.8196 569.03 96.7196 569.35 95.4596 569.35H89.0996V577H86.3996ZM89.0996 566.95H95.3096C96.0496 566.95 96.6896 566.75 97.2296 566.35C97.7896 565.95 98.2196 565.41 98.5196 564.73C98.8396 564.05 98.9996 563.31 98.9996 562.51C98.9996 561.67 98.8196 560.92 98.4596 560.26C98.0996 559.58 97.6296 559.05 97.0496 558.67C96.4696 558.29 95.8296 558.1 95.1296 558.1H89.0996V566.95ZM105.091 577V555.7H107.791V577H105.091ZM127.344 574.6V577H112.884V555.7H127.074V558.1H115.584V565H125.574V567.25H115.584V574.6H127.344ZM131.048 577V555.7H138.428C140.708 555.7 142.608 556.18 144.128 557.14C145.668 558.08 146.818 559.36 147.578 560.98C148.338 562.58 148.718 564.36 148.718 566.32C148.718 568.48 148.298 570.36 147.458 571.96C146.618 573.56 145.428 574.8 143.888 575.68C142.348 576.56 140.528 577 138.428 577H131.048ZM145.988 566.32C145.988 564.72 145.688 563.3 145.088 562.06C144.508 560.82 143.658 559.85 142.538 559.15C141.418 558.45 140.048 558.1 138.428 558.1H133.748V574.6H138.428C140.068 574.6 141.448 574.24 142.568 573.52C143.688 572.78 144.538 571.79 145.118 570.55C145.698 569.29 145.988 567.88 145.988 566.32ZM158.241 555.7H160.521L169.221 577H166.341L163.821 570.76H154.881L152.391 577H149.511L158.241 555.7ZM163.221 568.66L159.381 558.82L155.421 568.66H163.221ZM172.064 577V555.7H179.444C181.724 555.7 183.624 556.18 185.144 557.14C186.684 558.08 187.834 559.36 188.594 560.98C189.354 562.58 189.734 564.36 189.734 566.32C189.734 568.48 189.314 570.36 188.474 571.96C187.634 573.56 186.444 574.8 184.904 575.68C183.364 576.56 181.544 577 179.444 577H172.064ZM187.004 566.32C187.004 564.72 186.704 563.3 186.104 562.06C185.524 560.82 184.674 559.85 183.554 559.15C182.434 558.45 181.064 558.1 179.444 558.1H174.764V574.6H179.444C181.084 574.6 182.464 574.24 183.584 573.52C184.704 572.78 185.554 571.79 186.134 570.55C186.714 569.29 187.004 567.88 187.004 566.32ZM207.998 574.6V577H193.538V555.7H207.728V558.1H196.238V565H206.228V567.25H196.238V574.6H207.998ZM224.212 560.17C223.972 559.89 223.652 559.62 223.252 559.36C222.852 559.1 222.402 558.87 221.902 558.67C221.402 558.45 220.852 558.28 220.252 558.16C219.672 558.02 219.062 557.95 218.422 557.95C216.782 557.95 215.572 558.26 214.792 558.88C214.012 559.5 213.622 560.35 213.622 561.43C213.622 562.19 213.822 562.79 214.222 563.23C214.622 563.67 215.232 564.03 216.052 564.31C216.892 564.59 217.952 564.88 219.232 565.18C220.712 565.5 221.992 565.89 223.072 566.35C224.152 566.81 224.982 567.43 225.562 568.21C226.142 568.97 226.432 569.99 226.432 571.27C226.432 572.29 226.232 573.18 225.832 573.94C225.452 574.68 224.912 575.3 224.212 575.8C223.512 576.28 222.692 576.64 221.752 576.88C220.812 577.1 219.792 577.21 218.692 577.21C217.612 577.21 216.552 577.1 215.512 576.88C214.492 576.64 213.522 576.3 212.602 575.86C211.682 575.42 210.822 574.87 210.022 574.21L211.312 571.93C211.632 572.27 212.042 572.61 212.542 572.95C213.062 573.27 213.642 573.57 214.282 573.85C214.942 574.13 215.652 574.36 216.412 574.54C217.172 574.7 217.952 574.78 218.752 574.78C220.272 574.78 221.452 574.51 222.292 573.97C223.132 573.41 223.552 572.6 223.552 571.54C223.552 570.74 223.312 570.1 222.832 569.62C222.372 569.14 221.682 568.74 220.762 568.42C219.842 568.1 218.722 567.78 217.402 567.46C215.962 567.1 214.752 566.71 213.772 566.29C212.792 565.85 212.052 565.28 211.552 564.58C211.072 563.88 210.832 562.97 210.832 561.85C210.832 560.49 211.162 559.34 211.822 558.4C212.482 557.46 213.392 556.75 214.552 556.27C215.712 555.79 217.022 555.55 218.482 555.55C219.442 555.55 220.332 555.65 221.152 555.85C221.992 556.05 222.772 556.33 223.492 556.69C224.212 557.05 224.872 557.48 225.472 557.98L224.212 560.17Z" fill="white"/>
<path d="M420.97 675V658.74L413.95 671.25H412.3L405.25 658.74V675H402.55V653.7H405.4L413.11 667.53L420.85 653.7H423.67V675H420.97ZM428.771 675V653.7H437.651C438.591 653.7 439.451 653.9 440.231 654.3C441.011 654.68 441.691 655.2 442.271 655.86C442.851 656.5 443.301 657.23 443.621 658.05C443.941 658.85 444.101 659.67 444.101 660.51C444.101 661.67 443.841 662.78 443.321 663.84C442.801 664.88 442.071 665.73 441.131 666.39C440.191 667.03 439.091 667.35 437.831 667.35H431.471V675H428.771ZM431.471 664.95H437.681C438.421 664.95 439.061 664.75 439.601 664.35C440.161 663.95 440.591 663.41 440.891 662.73C441.211 662.05 441.371 661.31 441.371 660.51C441.371 659.67 441.191 658.92 440.831 658.26C440.471 657.58 440.001 657.05 439.421 656.67C438.841 656.29 438.201 656.1 437.501 656.1H431.471V664.95ZM452.999 675C452.999 674.2 453.059 673.45 453.179 672.75C453.319 672.05 453.559 671.38 453.899 670.74C454.259 670.1 454.759 669.49 455.399 668.91C456.039 668.31 456.869 667.73 457.889 667.17C458.489 666.83 459.089 666.51 459.689 666.21C460.309 665.91 460.879 665.59 461.399 665.25C461.939 664.91 462.369 664.54 462.689 664.14C463.009 663.72 463.169 663.24 463.169 662.7C463.169 662.24 463.029 661.8 462.749 661.38C462.489 660.94 462.089 660.59 461.549 660.33C461.029 660.05 460.379 659.91 459.599 659.91C458.999 659.91 458.449 659.99 457.949 660.15C457.469 660.31 457.029 660.52 456.629 660.78C456.249 661.02 455.909 661.28 455.609 661.56C455.329 661.82 455.089 662.06 454.889 662.28L453.239 660.42C453.399 660.24 453.669 660 454.049 659.7C454.429 659.38 454.909 659.06 455.489 658.74C456.069 658.42 456.739 658.15 457.499 657.93C458.279 657.69 459.129 657.57 460.049 657.57C461.289 657.57 462.349 657.79 463.229 658.23C464.129 658.65 464.819 659.23 465.299 659.97C465.779 660.69 466.019 661.5 466.019 662.4C466.019 663.18 465.849 663.86 465.509 664.44C465.189 665.02 464.769 665.53 464.249 665.97C463.749 666.41 463.219 666.79 462.659 667.11C462.119 667.41 461.629 667.67 461.189 667.89C460.289 668.33 459.519 668.73 458.879 669.09C458.239 669.45 457.709 669.81 457.289 670.17C456.889 670.51 456.559 670.87 456.299 671.25C456.059 671.63 455.879 672.08 455.759 672.6H466.349V675H452.999ZM480.544 672.6V675H469.774V672.6H474.034V660.9C473.854 661.14 473.574 661.4 473.194 661.68C472.814 661.94 472.384 662.19 471.904 662.43C471.424 662.67 470.944 662.87 470.464 663.03C469.984 663.17 469.544 663.24 469.144 663.24V660.72C469.584 660.72 470.064 660.6 470.584 660.36C471.124 660.1 471.644 659.8 472.144 659.46C472.644 659.12 473.064 658.8 473.404 658.5C473.764 658.2 473.974 657.99 474.034 657.87H476.734V672.6H480.544ZM482.56 675C482.56 674.2 482.62 673.45 482.74 672.75C482.88 672.05 483.12 671.38 483.46 670.74C483.82 670.1 484.32 669.49 484.96 668.91C485.6 668.31 486.43 667.73 487.45 667.17C488.05 666.83 488.65 666.51 489.25 666.21C489.87 665.91 490.44 665.59 490.96 665.25C491.5 664.91 491.93 664.54 492.25 664.14C492.57 663.72 492.73 663.24 492.73 662.7C492.73 662.24 492.59 661.8 492.31 661.38C492.05 660.94 491.65 660.59 491.11 660.33C490.59 660.05 489.94 659.91 489.16 659.91C488.56 659.91 488.01 659.99 487.51 660.15C487.03 660.31 486.59 660.52 486.19 660.78C485.81 661.02 485.47 661.28 485.17 661.56C484.89 661.82 484.65 662.06 484.45 662.28L482.8 660.42C482.96 660.24 483.23 660 483.61 659.7C483.99 659.38 484.47 659.06 485.05 658.74C485.63 658.42 486.3 658.15 487.06 657.93C487.84 657.69 488.69 657.57 489.61 657.57C490.85 657.57 491.91 657.79 492.79 658.23C493.69 658.65 494.38 659.23 494.86 659.97C495.34 660.69 495.58 661.5 495.58 662.4C495.58 663.18 495.41 663.86 495.07 664.44C494.75 665.02 494.33 665.53 493.81 665.97C493.31 666.41 492.78 666.79 492.22 667.11C491.68 667.41 491.19 667.67 490.75 667.89C489.85 668.33 489.08 668.73 488.44 669.09C487.8 669.45 487.27 669.81 486.85 670.17C486.45 670.51 486.12 670.87 485.86 671.25C485.62 671.63 485.44 672.08 485.32 672.6H495.91V675H482.56Z" fill="white"/>
<path d="M24.638 615.88C24.638 614.06 24.946 612.282 25.562 610.546C26.206 608.782 27.13 607.186 28.334 605.758C29.566 604.302 31.064 603.154 32.828 602.314C34.592 601.446 36.594 601.012 38.834 601.012C41.494 601.012 43.776 601.628 45.68 602.86C47.584 604.064 48.998 605.618 49.922 607.522L46.94 609.454C46.352 608.194 45.596 607.2 44.672 606.472C43.776 605.716 42.796 605.184 41.732 604.876C40.696 604.568 39.674 604.414 38.666 604.414C37.014 604.414 35.544 604.75 34.256 605.422C32.996 606.094 31.932 606.99 31.064 608.11C30.196 609.23 29.538 610.49 29.09 611.89C28.67 613.262 28.46 614.648 28.46 616.048C28.46 617.588 28.712 619.072 29.216 620.5C29.748 621.928 30.476 623.188 31.4 624.28C32.324 625.372 33.416 626.24 34.676 626.884C35.936 627.528 37.308 627.85 38.792 627.85C39.828 627.85 40.892 627.668 41.984 627.304C43.076 626.94 44.098 626.38 45.05 625.624C46.002 624.84 46.758 623.832 47.318 622.6L50.468 624.322C49.852 625.806 48.9 627.066 47.612 628.102C46.324 629.138 44.882 629.922 43.286 630.454C41.718 630.986 40.164 631.252 38.624 631.252C36.58 631.252 34.704 630.818 32.996 629.95C31.288 629.054 29.804 627.878 28.544 626.422C27.312 624.938 26.346 623.286 25.646 621.466C24.974 619.618 24.638 617.756 24.638 615.88ZM79.1809 601.18V631H75.4009V617.434H58.9789V631H55.1989V601.18H58.9789V614.074H75.4009V601.18H79.1809ZM95.4018 601.18H98.5938L110.774 631H106.742L103.214 622.264H90.6978L87.2118 631H83.1798L95.4018 601.18ZM102.374 619.324L96.9978 605.548L91.4538 619.324H102.374ZM136.37 631.21C133.99 631.21 131.988 630.804 130.364 629.992C128.74 629.152 127.438 628.032 126.458 626.632C125.478 625.204 124.764 623.594 124.316 621.802C123.868 620.01 123.644 618.162 123.644 616.258V601.18H127.424V616.258C127.424 617.714 127.564 619.142 127.844 620.542C128.152 621.914 128.642 623.146 129.314 624.238C129.986 625.33 130.896 626.198 132.044 626.842C133.192 627.486 134.62 627.808 136.328 627.808C138.064 627.808 139.506 627.486 140.654 626.842C141.802 626.17 142.712 625.288 143.384 624.196C144.056 623.076 144.532 621.83 144.812 620.458C145.12 619.086 145.274 617.686 145.274 616.258V601.18H149.054V616.258C149.054 618.274 148.816 620.192 148.34 622.012C147.892 623.804 147.164 625.386 146.156 626.758C145.148 628.13 143.832 629.222 142.208 630.034C140.612 630.818 138.666 631.21 136.37 631.21ZM173.283 607.438C172.947 607.046 172.499 606.668 171.939 606.304C171.379 605.94 170.749 605.618 170.049 605.338C169.349 605.03 168.579 604.792 167.739 604.624C166.927 604.428 166.073 604.33 165.177 604.33C162.881 604.33 161.187 604.764 160.095 605.632C159.003 606.5 158.457 607.69 158.457 609.202C158.457 610.266 158.737 611.106 159.297 611.722C159.857 612.338 160.711 612.842 161.859 613.234C163.035 613.626 164.519 614.032 166.311 614.452C168.383 614.9 170.175 615.446 171.687 616.09C173.199 616.734 174.361 617.602 175.173 618.694C175.985 619.758 176.391 621.186 176.391 622.978C176.391 624.406 176.111 625.652 175.551 626.716C175.019 627.752 174.263 628.62 173.283 629.32C172.303 629.992 171.155 630.496 169.839 630.832C168.523 631.14 167.095 631.294 165.555 631.294C164.043 631.294 162.559 631.14 161.103 630.832C159.675 630.496 158.317 630.02 157.029 629.404C155.741 628.788 154.537 628.018 153.417 627.094L155.223 623.902C155.671 624.378 156.245 624.854 156.945 625.33C157.673 625.778 158.485 626.198 159.381 626.59C160.305 626.982 161.299 627.304 162.363 627.556C163.427 627.78 164.519 627.892 165.639 627.892C167.767 627.892 169.419 627.514 170.595 626.758C171.771 625.974 172.359 624.84 172.359 623.356C172.359 622.236 172.023 621.34 171.351 620.668C170.707 619.996 169.741 619.436 168.453 618.988C167.165 618.54 165.597 618.092 163.749 617.644C161.733 617.14 160.039 616.594 158.667 616.006C157.295 615.39 156.259 614.592 155.559 613.612C154.887 612.632 154.551 611.358 154.551 609.79C154.551 607.886 155.013 606.276 155.937 604.96C156.861 603.644 158.135 602.65 159.759 601.978C161.383 601.306 163.217 600.97 165.261 600.97C166.605 600.97 167.851 601.11 168.999 601.39C170.175 601.67 171.267 602.062 172.275 602.566C173.283 603.07 174.207 603.672 175.047 604.372L173.283 607.438ZM189.861 601.18H193.053L205.233 631H201.201L197.673 622.264H185.157L181.671 631H177.639L189.861 601.18ZM196.833 619.324L191.457 605.548L185.913 619.324H196.833ZM212.993 608.152V631H209.213V601.18H212.405L230.633 624.49V601.222H234.413V631H230.969L212.993 608.152ZM241.533 631V601.18H251.865C255.057 601.18 257.717 601.852 259.845 603.196C262.001 604.512 263.611 606.304 264.675 608.572C265.739 610.812 266.271 613.304 266.271 616.048C266.271 619.072 265.683 621.704 264.507 623.944C263.331 626.184 261.665 627.92 259.509 629.152C257.353 630.384 254.805 631 251.865 631H241.533ZM262.449 616.048C262.449 613.808 262.029 611.82 261.189 610.084C260.377 608.348 259.187 606.99 257.619 606.01C256.051 605.03 254.133 604.54 251.865 604.54H245.313V627.64H251.865C254.161 627.64 256.093 627.136 257.661 626.128C259.229 625.092 260.419 623.706 261.231 621.97C262.043 620.206 262.449 618.232 262.449 616.048ZM271.597 631V601.18H275.377V631H271.597ZM283.348 601.18L293.218 626.254L303.046 601.18H307.036L294.94 631H291.496L279.358 601.18H283.348ZM317.706 601.18H320.898L333.078 631H329.046L325.518 622.264H313.002L309.516 631H305.484L317.706 601.18ZM324.678 619.324L319.302 605.548L313.758 619.324H324.678ZM337.058 631V601.18H349.826C351.142 601.18 352.346 601.46 353.438 602.02C354.53 602.552 355.482 603.28 356.294 604.204C357.106 605.1 357.736 606.122 358.184 607.27C358.632 608.39 358.856 609.538 358.856 610.714C358.856 612.086 358.59 613.388 358.058 614.62C357.554 615.852 356.826 616.902 355.874 617.77C354.95 618.638 353.858 619.24 352.598 619.576L359.822 631H355.538L348.734 620.29H340.838V631H337.058ZM340.838 616.93H349.868C350.904 616.93 351.8 616.65 352.556 616.09C353.34 615.502 353.942 614.732 354.362 613.78C354.81 612.828 355.034 611.806 355.034 610.714C355.034 609.594 354.782 608.572 354.278 607.648C353.774 606.696 353.116 605.94 352.304 605.38C351.492 604.82 350.596 604.54 349.616 604.54H340.838V616.93ZM373.734 601.18H376.926L389.106 631H385.074L381.546 622.264H369.03L365.544 631H361.512L373.734 601.18ZM380.706 619.324L375.33 605.548L369.786 619.324H380.706ZM410.189 607.438C409.853 607.046 409.405 606.668 408.845 606.304C408.285 605.94 407.655 605.618 406.955 605.338C406.255 605.03 405.485 604.792 404.645 604.624C403.833 604.428 402.979 604.33 402.083 604.33C399.787 604.33 398.093 604.764 397.001 605.632C395.909 606.5 395.363 607.69 395.363 609.202C395.363 610.266 395.643 611.106 396.203 611.722C396.763 612.338 397.617 612.842 398.765 613.234C399.941 613.626 401.425 614.032 403.217 614.452C405.289 614.9 407.081 615.446 408.593 616.09C410.105 616.734 411.267 617.602 412.079 618.694C412.891 619.758 413.297 621.186 413.297 622.978C413.297 624.406 413.017 625.652 412.457 626.716C411.925 627.752 411.169 628.62 410.189 629.32C409.209 629.992 408.061 630.496 406.745 630.832C405.429 631.14 404.001 631.294 402.461 631.294C400.949 631.294 399.465 631.14 398.009 630.832C396.581 630.496 395.223 630.02 393.935 629.404C392.647 628.788 391.443 628.018 390.323 627.094L392.129 623.902C392.577 624.378 393.151 624.854 393.851 625.33C394.579 625.778 395.391 626.198 396.287 626.59C397.211 626.982 398.205 627.304 399.269 627.556C400.333 627.78 401.425 627.892 402.545 627.892C404.673 627.892 406.325 627.514 407.501 626.758C408.677 625.974 409.265 624.84 409.265 623.356C409.265 622.236 408.929 621.34 408.257 620.668C407.613 619.996 406.647 619.436 405.359 618.988C404.071 618.54 402.503 618.092 400.655 617.644C398.639 617.14 396.945 616.594 395.573 616.006C394.201 615.39 393.165 614.592 392.465 613.612C391.793 612.632 391.457 611.358 391.457 609.79C391.457 607.886 391.919 606.276 392.843 604.96C393.767 603.644 395.041 602.65 396.665 601.978C398.289 601.306 400.123 600.97 402.167 600.97C403.511 600.97 404.757 601.11 405.905 601.39C407.081 601.67 408.173 602.062 409.181 602.566C410.189 603.07 411.113 603.672 411.953 604.372L410.189 607.438Z" fill="white"/>
<defs>
<filter id="filter0_d_134_122" x="123.38" y="216.288" width="45" height="184.479" filterUnits="userSpaceOnUse" color-interpolation-filters="sRGB">
<feFlood flood-opacity="0" result="BackgroundImageFix"/>
<feColorMatrix in="SourceAlpha" type="matrix" values="0 0 0 0 0 0 0 0 0 0 0 0 0 0 0 0 0 0 127 0" result="hardAlpha"/>
<feOffset dy="10"/>
<feGaussianBlur stdDeviation="5"/>
<feComposite in2="hardAlpha" operator="out"/>
<feColorMatrix type="matrix" values="0 0 0 0 0 0 0 0 0 0 0 0 0 0 0 0 0 0 0.25 0"/>
<feBlend mode="normal" in2="BackgroundImageFix" result="effect1_dropShadow_134_122"/>
<feBlend mode="normal" in="SourceGraphic" in2="effect1_dropShadow_134_122" result="shape"/>
</filter>
<filter id="filter1_d_134_122" x="442.958" y="216.288" width="45" height="184.479" filterUnits="userSpaceOnUse" color-interpolation-filters="sRGB">
<feFlood flood-opacity="0" result="BackgroundImageFix"/>
<feColorMatrix in="SourceAlpha" type="matrix" values="0 0 0 0 0 0 0 0 0 0 0 0 0 0 0 0 0 0 127 0" result="hardAlpha"/>
<feOffset dy="10"/>
<feGaussianBlur stdDeviation="5"/>
<feComposite in2="hardAlpha" operator="out"/>
<feColorMatrix type="matrix" values="0 0 0 0 0 0 0 0 0 0 0 0 0 0 0 0 0 0 0.25 0"/>
<feBlend mode="normal" in2="BackgroundImageFix" result="effect1_dropShadow_134_122"/>
<feBlend mode="normal" in="SourceGraphic" in2="effect1_dropShadow_134_122" result="shape"/>
</filter>
<filter id="filter2_d_134_122" x="205.183" y="170.26" width="45" height="276.317" filterUnits="userSpaceOnUse" color-interpolation-filters="sRGB">
<feFlood flood-opacity="0" result="BackgroundImageFix"/>
<feColorMatrix in="SourceAlpha" type="matrix" values="0 0 0 0 0 0 0 0 0 0 0 0 0 0 0 0 0 0 127 0" result="hardAlpha"/>
<feOffset dy="10"/>
<feGaussianBlur stdDeviation="5"/>
<feComposite in2="hardAlpha" operator="out"/>
<feColorMatrix type="matrix" values="0 0 0 0 0 0 0 0 0 0 0 0 0 0 0 0 0 0 0.25 0"/>
<feBlend mode="normal" in2="BackgroundImageFix" result="effect1_dropShadow_134_122"/>
<feBlend mode="normal" in="SourceGraphic" in2="effect1_dropShadow_134_122" result="shape"/>
</filter>
<filter id="filter3_d_134_122" x="284.369" y="123.468" width="45" height="370.009" filterUnits="userSpaceOnUse" color-interpolation-filters="sRGB">
<feFlood flood-opacity="0" result="BackgroundImageFix"/>
<feColorMatrix in="SourceAlpha" type="matrix" values="0 0 0 0 0 0 0 0 0 0 0 0 0 0 0 0 0 0 127 0" result="hardAlpha"/>
<feOffset dy="10"/>
<feGaussianBlur stdDeviation="5"/>
<feComposite in2="hardAlpha" operator="out"/>
<feColorMatrix type="matrix" values="0 0 0 0 0 0 0 0 0 0 0 0 0 0 0 0 0 0 0.25 0"/>
<feBlend mode="normal" in2="BackgroundImageFix" result="effect1_dropShadow_134_122"/>
<feBlend mode="normal" in="SourceGraphic" in2="effect1_dropShadow_134_122" result="shape"/>
</filter>
<filter id="filter4_d_134_122" x="363.445" y="0" width="45" height="446.577" filterUnits="userSpaceOnUse" color-interpolation-filters="sRGB">
<feFlood flood-opacity="0" result="BackgroundImageFix"/>
<feColorMatrix in="SourceAlpha" type="matrix" values="0 0 0 0 0 0 0 0 0 0 0 0 0 0 0 0 0 0 127 0" result="hardAlpha"/>
<feOffset dy="10"/>
<feGaussianBlur stdDeviation="5"/>
<feComposite in2="hardAlpha" operator="out"/>
<feColorMatrix type="matrix" values="0 0 0 0 0 0 0 0 0 0 0 0 0 0 0 0 0 0 0.25 0"/>
<feBlend mode="normal" in2="BackgroundImageFix" result="effect1_dropShadow_134_122"/>
<feBlend mode="normal" in="SourceGraphic" in2="effect1_dropShadow_134_122" result="shape"/>
</filter>
<filter id="filter5_d_134_122" x="0.5" y="10.3857" width="587.737" height="320.533" filterUnits="userSpaceOnUse" color-interpolation-filters="sRGB">
<feFlood flood-opacity="0" result="BackgroundImageFix"/>
<feColorMatrix in="SourceAlpha" type="matrix" values="0 0 0 0 0 0 0 0 0 0 0 0 0 0 0 0 0 0 127 0" result="hardAlpha"/>
<feOffset dy="10"/>
<feGaussianBlur stdDeviation="5"/>
<feComposite in2="hardAlpha" operator="out"/>
<feColorMatrix type="matrix" values="0 0 0 0 0 0 0 0 0 0 0 0 0 0 0 0 0 0 0.25 0"/>
<feBlend mode="normal" in2="BackgroundImageFix" result="effect1_dropShadow_134_122"/>
<feBlend mode="normal" in="SourceGraphic" in2="effect1_dropShadow_134_122" result="shape"/>
</filter>
</defs>
</svg>
