<svg width="416" height="97" viewBox="0 0 416 97" fill="none" xmlns="http://www.w3.org/2000/svg">
<g filter="url(#filter0_d_47_1993)">
<line x1="31.3971" y1="36.5693" x2="31.3971" y2="60.2381" stroke="#F8F9FF" stroke-width="3" stroke-linecap="round"/>
</g>
<g filter="url(#filter1_d_47_1993)">
<line x1="83.2138" y1="36.5693" x2="83.2138" y2="60.2381" stroke="#F8F9FF" stroke-width="3" stroke-linecap="round"/>
</g>
<g filter="url(#filter2_d_47_1993)">
<line x1="44.6608" y1="29.1062" x2="44.6608" y2="67.6657" stroke="#F8F9FF" stroke-width="3" stroke-linecap="round"/>
</g>
<g filter="url(#filter3_d_47_1993)">
<line x1="57.5" y1="21.5193" x2="57.5" y2="75.2701" stroke="#F8F9FF" stroke-width="3" stroke-linecap="round"/>
</g>
<g filter="url(#filter4_d_47_1993)">
<line x1="70.3215" y1="1.5" x2="70.3215" y2="67.6656" stroke="#F8F9FF" stroke-width="3" stroke-linecap="round"/>
</g>
<g filter="url(#filter5_d_47_1993)">
<path d="M100 48.3858L56 4.54492L12 48.3858" stroke="#F8F9FF" stroke-width="3" stroke-linecap="round"/>
</g>
<path d="M118.7 24V9.8H124.62C125.247 9.8 125.82 9.93333 126.34 10.2C126.86 10.4533 127.313 10.8 127.7 11.24C128.087 11.6667 128.387 12.1533 128.6 12.7C128.813 13.2333 128.92 13.78 128.92 14.34C128.92 15.1133 128.747 15.8533 128.4 16.56C128.053 17.2533 127.567 17.82 126.94 18.26C126.313 18.6867 125.58 18.9 124.74 18.9H120.5V24H118.7ZM120.5 17.3H124.64C125.133 17.3 125.56 17.1667 125.92 16.9C126.293 16.6333 126.58 16.2733 126.78 15.82C126.993 15.3667 127.1 14.8733 127.1 14.34C127.1 13.78 126.98 13.28 126.74 12.84C126.5 12.3867 126.187 12.0333 125.8 11.78C125.413 11.5267 124.987 11.4 124.52 11.4H120.5V17.3ZM131.161 24V9.8H137.241C137.868 9.8 138.441 9.93333 138.961 10.2C139.481 10.4533 139.934 10.8 140.321 11.24C140.708 11.6667 141.008 12.1533 141.221 12.7C141.434 13.2333 141.541 13.78 141.541 14.34C141.541 14.9933 141.414 15.6133 141.161 16.2C140.921 16.7867 140.574 17.2867 140.121 17.7C139.681 18.1133 139.161 18.4 138.561 18.56L142.001 24H139.961L136.721 18.9H132.961V24H131.161ZM132.961 17.3H137.261C137.754 17.3 138.181 17.1667 138.541 16.9C138.914 16.62 139.201 16.2533 139.401 15.8C139.614 15.3467 139.721 14.86 139.721 14.34C139.721 13.8067 139.601 13.32 139.361 12.88C139.121 12.4267 138.808 12.0667 138.421 11.8C138.034 11.5333 137.608 11.4 137.141 11.4H132.961V17.3ZM150.065 24.1C149.065 24.1 148.159 23.9 147.345 23.5C146.532 23.1 145.825 22.56 145.225 21.88C144.639 21.1867 144.185 20.4133 143.865 19.56C143.545 18.6933 143.385 17.8067 143.385 16.9C143.385 15.9533 143.552 15.0533 143.885 14.2C144.232 13.3333 144.705 12.5667 145.305 11.9C145.919 11.22 146.632 10.6867 147.445 10.3C148.259 9.9 149.145 9.7 150.105 9.7C151.105 9.7 152.012 9.90667 152.825 10.32C153.639 10.7333 154.339 11.2867 154.925 11.98C155.512 12.6733 155.965 13.4467 156.285 14.3C156.605 15.1533 156.765 16.0267 156.765 16.92C156.765 17.8667 156.599 18.7733 156.265 19.64C155.932 20.4933 155.459 21.26 154.845 21.94C154.245 22.6067 153.539 23.1333 152.725 23.52C151.912 23.9067 151.025 24.1 150.065 24.1ZM145.205 16.9C145.205 17.62 145.319 18.32 145.545 19C145.785 19.6667 146.119 20.26 146.545 20.78C146.972 21.3 147.485 21.7133 148.085 22.02C148.685 22.3267 149.352 22.48 150.085 22.48C150.845 22.48 151.525 22.32 152.125 22C152.725 21.68 153.232 21.2533 153.645 20.72C154.072 20.1867 154.392 19.5867 154.605 18.92C154.832 18.2533 154.945 17.58 154.945 16.9C154.945 16.18 154.825 15.4867 154.585 14.82C154.359 14.1533 154.025 13.56 153.585 13.04C153.159 12.5067 152.645 12.0933 152.045 11.8C151.459 11.4933 150.805 11.34 150.085 11.34C149.325 11.34 148.645 11.5 148.045 11.82C147.445 12.1267 146.932 12.5467 146.505 13.08C146.092 13.6133 145.772 14.2133 145.545 14.88C145.319 15.5333 145.205 16.2067 145.205 16.9ZM159.266 24V9.8H165.186C165.813 9.8 166.386 9.93333 166.906 10.2C167.426 10.4533 167.88 10.8 168.266 11.24C168.653 11.6667 168.953 12.1533 169.166 12.7C169.38 13.2333 169.486 13.78 169.486 14.34C169.486 15.1133 169.313 15.8533 168.966 16.56C168.62 17.2533 168.133 17.82 167.506 18.26C166.88 18.6867 166.146 18.9 165.306 18.9H161.066V24H159.266ZM161.066 17.3H165.206C165.7 17.3 166.126 17.1667 166.486 16.9C166.86 16.6333 167.146 16.2733 167.346 15.82C167.56 15.3667 167.666 14.8733 167.666 14.34C167.666 13.78 167.546 13.28 167.306 12.84C167.066 12.3867 166.753 12.0333 166.366 11.78C165.98 11.5267 165.553 11.4 165.086 11.4H161.066V17.3ZM171.727 24V9.8H173.527V24H171.727ZM186.563 22.4V24H176.923V9.8H186.383V11.4H178.723V16H185.383V17.5H178.723V22.4H186.563ZM189.032 24V9.8H193.952C195.472 9.8 196.739 10.12 197.752 10.76C198.779 11.3867 199.545 12.24 200.052 13.32C200.559 14.3867 200.812 15.5733 200.812 16.88C200.812 18.32 200.532 19.5733 199.972 20.64C199.412 21.7067 198.619 22.5333 197.592 23.12C196.565 23.7067 195.352 24 193.952 24H189.032ZM198.992 16.88C198.992 15.8133 198.792 14.8667 198.392 14.04C198.005 13.2133 197.439 12.5667 196.692 12.1C195.945 11.6333 195.032 11.4 193.952 11.4H190.832V22.4H193.952C195.045 22.4 195.965 22.16 196.712 21.68C197.459 21.1867 198.025 20.5267 198.412 19.7C198.799 18.86 198.992 17.92 198.992 16.88ZM207.161 9.8H208.681L214.481 24H212.561L210.881 19.84H204.921L203.261 24H201.341L207.161 9.8ZM210.481 18.44L207.921 11.88L205.281 18.44H210.481ZM216.376 24V9.8H221.296C222.816 9.8 224.082 10.12 225.096 10.76C226.122 11.3867 226.889 12.24 227.396 13.32C227.902 14.3867 228.156 15.5733 228.156 16.88C228.156 18.32 227.876 19.5733 227.316 20.64C226.756 21.7067 225.962 22.5333 224.936 23.12C223.909 23.7067 222.696 24 221.296 24H216.376ZM226.336 16.88C226.336 15.8133 226.136 14.8667 225.736 14.04C225.349 13.2133 224.782 12.5667 224.036 12.1C223.289 11.6333 222.376 11.4 221.296 11.4H218.176V22.4H221.296C222.389 22.4 223.309 22.16 224.056 21.68C224.802 21.1867 225.369 20.5267 225.756 19.7C226.142 18.86 226.336 17.92 226.336 16.88ZM240.332 22.4V24H230.692V9.8H240.152V11.4H232.492V16H239.152V17.5H232.492V22.4H240.332ZM251.142 12.78C250.982 12.5933 250.768 12.4133 250.502 12.24C250.235 12.0667 249.935 11.9133 249.602 11.78C249.268 11.6333 248.902 11.52 248.502 11.44C248.115 11.3467 247.708 11.3 247.282 11.3C246.188 11.3 245.382 11.5067 244.862 11.92C244.342 12.3333 244.082 12.9 244.082 13.62C244.082 14.1267 244.215 14.5267 244.482 14.82C244.748 15.1133 245.155 15.3533 245.702 15.54C246.262 15.7267 246.968 15.92 247.822 16.12C248.808 16.3333 249.662 16.5933 250.382 16.9C251.102 17.2067 251.655 17.62 252.042 18.14C252.428 18.6467 252.622 19.3267 252.622 20.18C252.622 20.86 252.488 21.4533 252.222 21.96C251.968 22.4533 251.608 22.8667 251.142 23.2C250.675 23.52 250.128 23.76 249.502 23.92C248.875 24.0667 248.195 24.14 247.462 24.14C246.742 24.14 246.035 24.0667 245.342 23.92C244.662 23.76 244.015 23.5333 243.402 23.24C242.788 22.9467 242.215 22.58 241.682 22.14L242.542 20.62C242.755 20.8467 243.028 21.0733 243.362 21.3C243.708 21.5133 244.095 21.7133 244.522 21.9C244.962 22.0867 245.435 22.24 245.942 22.36C246.448 22.4667 246.968 22.52 247.502 22.52C248.515 22.52 249.302 22.34 249.862 21.98C250.422 21.6067 250.702 21.0667 250.702 20.36C250.702 19.8267 250.542 19.4 250.222 19.08C249.915 18.76 249.455 18.4933 248.842 18.28C248.228 18.0667 247.482 17.8533 246.602 17.64C245.642 17.4 244.835 17.14 244.182 16.86C243.528 16.5667 243.035 16.1867 242.702 15.72C242.382 15.2533 242.222 14.6467 242.222 13.9C242.222 12.9933 242.442 12.2267 242.882 11.6C243.322 10.9733 243.928 10.5 244.702 10.18C245.475 9.86 246.348 9.7 247.322 9.7C247.962 9.7 248.555 9.76667 249.102 9.9C249.662 10.0333 250.182 10.22 250.662 10.46C251.142 10.7 251.582 10.9867 251.982 11.32L251.142 12.78Z" fill="white"/>
<path d="M364.98 91V80.16L360.3 88.5H359.2L354.5 80.16V91H352.7V76.8H354.6L359.74 86.02L364.9 76.8H366.78V91H364.98ZM370.18 91V76.8H376.1C376.727 76.8 377.3 76.9333 377.82 77.2C378.34 77.4533 378.794 77.8 379.18 78.24C379.567 78.6667 379.867 79.1533 380.08 79.7C380.294 80.2333 380.4 80.78 380.4 81.34C380.4 82.1133 380.227 82.8533 379.88 83.56C379.534 84.2533 379.047 84.82 378.42 85.26C377.794 85.6867 377.06 85.9 376.22 85.9H371.98V91H370.18ZM371.98 84.3H376.12C376.614 84.3 377.04 84.1667 377.4 83.9C377.774 83.6333 378.06 83.2733 378.26 82.82C378.474 82.3667 378.58 81.8733 378.58 81.34C378.58 80.78 378.46 80.28 378.22 79.84C377.98 79.3867 377.667 79.0333 377.28 78.78C376.894 78.5267 376.467 78.4 376 78.4H371.98V84.3ZM386.333 91C386.333 90.4667 386.373 89.9667 386.453 89.5C386.546 89.0333 386.706 88.5867 386.933 88.16C387.173 87.7333 387.506 87.3267 387.933 86.94C388.359 86.54 388.913 86.1533 389.593 85.78C389.993 85.5533 390.393 85.34 390.793 85.14C391.206 84.94 391.586 84.7267 391.933 84.5C392.293 84.2733 392.579 84.0267 392.793 83.76C393.006 83.48 393.113 83.16 393.113 82.8C393.113 82.4933 393.019 82.2 392.833 81.92C392.659 81.6267 392.393 81.3933 392.033 81.22C391.686 81.0333 391.253 80.94 390.733 80.94C390.333 80.94 389.966 80.9933 389.633 81.1C389.313 81.2067 389.019 81.3467 388.753 81.52C388.499 81.68 388.273 81.8533 388.073 82.04C387.886 82.2133 387.726 82.3733 387.593 82.52L386.493 81.28C386.599 81.16 386.779 81 387.033 80.8C387.286 80.5867 387.606 80.3733 387.993 80.16C388.379 79.9467 388.826 79.7667 389.333 79.62C389.853 79.46 390.419 79.38 391.033 79.38C391.859 79.38 392.566 79.5267 393.153 79.82C393.753 80.1 394.213 80.4867 394.533 80.98C394.853 81.46 395.013 82 395.013 82.6C395.013 83.12 394.899 83.5733 394.673 83.96C394.459 84.3467 394.179 84.6867 393.833 84.98C393.499 85.2733 393.146 85.5267 392.773 85.74C392.413 85.94 392.086 86.1133 391.793 86.26C391.193 86.5533 390.679 86.82 390.253 87.06C389.826 87.3 389.473 87.54 389.193 87.78C388.926 88.0067 388.706 88.2467 388.533 88.5C388.373 88.7533 388.253 89.0533 388.173 89.4H395.233V91H386.333ZM404.696 89.4V91H397.516V89.4H400.356V81.6C400.236 81.76 400.049 81.9333 399.796 82.12C399.542 82.2933 399.256 82.46 398.936 82.62C398.616 82.78 398.296 82.9133 397.976 83.02C397.656 83.1133 397.362 83.16 397.096 83.16V81.48C397.389 81.48 397.709 81.4 398.056 81.24C398.416 81.0667 398.762 80.8667 399.096 80.64C399.429 80.4133 399.709 80.2 399.936 80C400.176 79.8 400.316 79.66 400.356 79.58H402.156V89.4H404.696ZM406.04 91C406.04 90.4667 406.08 89.9667 406.16 89.5C406.253 89.0333 406.413 88.5867 406.64 88.16C406.88 87.7333 407.213 87.3267 407.64 86.94C408.066 86.54 408.62 86.1533 409.3 85.78C409.7 85.5533 410.1 85.34 410.5 85.14C410.913 84.94 411.293 84.7267 411.64 84.5C412 84.2733 412.286 84.0267 412.5 83.76C412.713 83.48 412.82 83.16 412.82 82.8C412.82 82.4933 412.726 82.2 412.54 81.92C412.366 81.6267 412.1 81.3933 411.74 81.22C411.393 81.0333 410.96 80.94 410.44 80.94C410.04 80.94 409.673 80.9933 409.34 81.1C409.02 81.2067 408.726 81.3467 408.46 81.52C408.206 81.68 407.98 81.8533 407.78 82.04C407.593 82.2133 407.433 82.3733 407.3 82.52L406.2 81.28C406.306 81.16 406.486 81 406.74 80.8C406.993 80.5867 407.313 80.3733 407.7 80.16C408.086 79.9467 408.533 79.7667 409.04 79.62C409.56 79.46 410.126 79.38 410.74 79.38C411.566 79.38 412.273 79.5267 412.86 79.82C413.46 80.1 413.92 80.4867 414.24 80.98C414.56 81.46 414.72 82 414.72 82.6C414.72 83.12 414.606 83.5733 414.38 83.96C414.166 84.3467 413.886 84.6867 413.54 84.98C413.206 85.2733 412.853 85.5267 412.48 85.74C412.12 85.94 411.793 86.1133 411.5 86.26C410.9 86.5533 410.386 86.82 409.96 87.06C409.533 87.3 409.18 87.54 408.9 87.78C408.633 88.0067 408.413 88.2467 408.24 88.5C408.08 88.7533 407.96 89.0533 407.88 89.4H414.94V91H406.04Z" fill="white"/>
<path d="M118.248 52.48C118.248 51.0933 118.483 49.7387 118.952 48.416C119.443 47.072 120.147 45.856 121.064 44.768C122.003 43.6587 123.144 42.784 124.488 42.144C125.832 41.4827 127.357 41.152 129.064 41.152C131.091 41.152 132.829 41.6213 134.28 42.56C135.731 43.4773 136.808 44.6613 137.512 46.112L135.24 47.584C134.792 46.624 134.216 45.8667 133.512 45.312C132.829 44.736 132.083 44.3307 131.272 44.096C130.483 43.8613 129.704 43.744 128.936 43.744C127.677 43.744 126.557 44 125.576 44.512C124.616 45.024 123.805 45.7067 123.144 46.56C122.483 47.4133 121.981 48.3733 121.64 49.44C121.32 50.4853 121.16 51.5413 121.16 52.608C121.16 53.7813 121.352 54.912 121.736 56C122.141 57.088 122.696 58.048 123.4 58.88C124.104 59.712 124.936 60.3733 125.896 60.864C126.856 61.3547 127.901 61.6 129.032 61.6C129.821 61.6 130.632 61.4613 131.464 61.184C132.296 60.9067 133.075 60.48 133.8 59.904C134.525 59.3067 135.101 58.5387 135.528 57.6L137.928 58.912C137.459 60.0427 136.733 61.0027 135.752 61.792C134.771 62.5813 133.672 63.1787 132.456 63.584C131.261 63.9893 130.077 64.192 128.904 64.192C127.347 64.192 125.917 63.8613 124.616 63.2C123.315 62.5173 122.184 61.6213 121.224 60.512C120.285 59.3813 119.549 58.1227 119.016 56.736C118.504 55.328 118.248 53.9093 118.248 52.48ZM159.805 41.28V64H156.925V53.664H144.413V64H141.533V41.28H144.413V51.104H156.925V41.28H159.805ZM172.163 41.28H174.595L183.875 64H180.803L178.115 57.344H168.579L165.923 64H162.851L172.163 41.28ZM177.475 55.104L173.379 44.608L169.155 55.104H177.475ZM203.377 64.16C201.564 64.16 200.039 63.8507 198.801 63.232C197.564 62.592 196.572 61.7387 195.825 60.672C195.079 59.584 194.535 58.3573 194.193 56.992C193.852 55.6267 193.681 54.2187 193.681 52.768V41.28H196.561V52.768C196.561 53.8773 196.668 54.9653 196.881 56.032C197.116 57.0773 197.489 58.016 198.001 58.848C198.513 59.68 199.207 60.3413 200.081 60.832C200.956 61.3227 202.044 61.568 203.345 61.568C204.668 61.568 205.767 61.3227 206.641 60.832C207.516 60.32 208.209 59.648 208.721 58.816C209.233 57.9627 209.596 57.0133 209.809 55.968C210.044 54.9227 210.161 53.856 210.161 52.768V41.28H213.041V52.768C213.041 54.304 212.86 55.7653 212.497 57.152C212.156 58.5173 211.601 59.7227 210.833 60.768C210.065 61.8133 209.063 62.6453 207.825 63.264C206.609 63.8613 205.127 64.16 203.377 64.16ZM231.502 46.048C231.246 45.7493 230.904 45.4613 230.478 45.184C230.051 44.9067 229.571 44.6613 229.038 44.448C228.504 44.2133 227.918 44.032 227.278 43.904C226.659 43.7547 226.008 43.68 225.326 43.68C223.576 43.68 222.286 44.0107 221.454 44.672C220.622 45.3333 220.206 46.24 220.206 47.392C220.206 48.2027 220.419 48.8427 220.846 49.312C221.272 49.7813 221.923 50.1653 222.798 50.464C223.694 50.7627 224.824 51.072 226.19 51.392C227.768 51.7333 229.134 52.1493 230.286 52.64C231.438 53.1307 232.323 53.792 232.942 54.624C233.56 55.4347 233.87 56.5227 233.87 57.888C233.87 58.976 233.656 59.9253 233.23 60.736C232.824 61.5253 232.248 62.1867 231.502 62.72C230.755 63.232 229.88 63.616 228.878 63.872C227.875 64.1067 226.787 64.224 225.614 64.224C224.462 64.224 223.331 64.1067 222.222 63.872C221.134 63.616 220.099 63.2533 219.118 62.784C218.136 62.3147 217.219 61.728 216.366 61.024L217.742 58.592C218.083 58.9547 218.52 59.3173 219.054 59.68C219.608 60.0213 220.227 60.3413 220.91 60.64C221.614 60.9387 222.371 61.184 223.182 61.376C223.992 61.5467 224.824 61.632 225.678 61.632C227.299 61.632 228.558 61.344 229.454 60.768C230.35 60.1707 230.798 59.3067 230.798 58.176C230.798 57.3227 230.542 56.64 230.03 56.128C229.539 55.616 228.803 55.1893 227.822 54.848C226.84 54.5067 225.646 54.1653 224.238 53.824C222.702 53.44 221.411 53.024 220.366 52.576C219.32 52.1067 218.531 51.4987 217.998 50.752C217.486 50.0053 217.23 49.0347 217.23 47.84C217.23 46.3893 217.582 45.1627 218.286 44.16C218.99 43.1573 219.96 42.4 221.198 41.888C222.435 41.376 223.832 41.12 225.39 41.12C226.414 41.12 227.363 41.2267 228.238 41.44C229.134 41.6533 229.966 41.952 230.734 42.336C231.502 42.72 232.206 43.1787 232.846 43.712L231.502 46.048ZM244.132 41.28H246.564L255.844 64H252.772L250.084 57.344H240.548L237.892 64H234.82L244.132 41.28ZM249.444 55.104L245.348 44.608L241.124 55.104H249.444ZM261.756 46.592V64H258.876V41.28H261.308L275.196 59.04V41.312H278.076V64H275.452L261.756 46.592ZM283.501 64V41.28H291.373C293.805 41.28 295.832 41.792 297.453 42.816C299.096 43.8187 300.323 45.184 301.133 46.912C301.944 48.6187 302.349 50.5173 302.349 52.608C302.349 54.912 301.901 56.9173 301.005 58.624C300.109 60.3307 298.84 61.6533 297.197 62.592C295.555 63.5307 293.613 64 291.373 64H283.501ZM299.437 52.608C299.437 50.9013 299.117 49.3867 298.477 48.064C297.859 46.7413 296.952 45.7067 295.757 44.96C294.563 44.2133 293.101 43.84 291.373 43.84H286.381V61.44H291.373C293.123 61.44 294.595 61.056 295.789 60.288C296.984 59.4987 297.891 58.4427 298.509 57.12C299.128 55.776 299.437 54.272 299.437 52.608ZM306.408 64V41.28H309.288V64H306.408ZM315.36 41.28L322.88 60.384L330.368 41.28H333.408L324.192 64H321.568L312.32 41.28H315.36ZM341.538 41.28H343.97L353.25 64H350.178L347.49 57.344H337.954L335.298 64H332.226L341.538 41.28ZM346.85 55.104L342.754 44.608L338.53 55.104H346.85ZM356.283 64V41.28H366.011C367.013 41.28 367.931 41.4933 368.763 41.92C369.595 42.3253 370.32 42.88 370.939 43.584C371.557 44.2667 372.037 45.0453 372.378 45.92C372.72 46.7733 372.891 47.648 372.891 48.544C372.891 49.5893 372.688 50.5813 372.283 51.52C371.899 52.4587 371.344 53.2587 370.619 53.92C369.915 54.5813 369.083 55.04 368.123 55.296L373.627 64H370.363L365.179 55.84H359.163V64H356.283ZM359.163 53.28H366.043C366.832 53.28 367.515 53.0667 368.091 52.64C368.688 52.192 369.147 51.6053 369.467 50.88C369.808 50.1547 369.979 49.376 369.979 48.544C369.979 47.6907 369.787 46.912 369.403 46.208C369.019 45.4827 368.517 44.9067 367.899 44.48C367.28 44.0533 366.597 43.84 365.851 43.84H359.163V53.28ZM384.226 41.28H386.658L395.938 64H392.866L390.178 57.344H380.642L377.986 64H374.914L384.226 41.28ZM389.538 55.104L385.442 44.608L381.218 55.104H389.538ZM412.002 46.048C411.746 45.7493 411.404 45.4613 410.978 45.184C410.551 44.9067 410.071 44.6613 409.538 44.448C409.004 44.2133 408.418 44.032 407.778 43.904C407.159 43.7547 406.508 43.68 405.826 43.68C404.076 43.68 402.786 44.0107 401.954 44.672C401.122 45.3333 400.706 46.24 400.706 47.392C400.706 48.2027 400.919 48.8427 401.346 49.312C401.772 49.7813 402.423 50.1653 403.298 50.464C404.194 50.7627 405.324 51.072 406.69 51.392C408.268 51.7333 409.634 52.1493 410.786 52.64C411.938 53.1307 412.823 53.792 413.442 54.624C414.06 55.4347 414.37 56.5227 414.37 57.888C414.37 58.976 414.156 59.9253 413.73 60.736C413.324 61.5253 412.748 62.1867 412.002 62.72C411.255 63.232 410.38 63.616 409.378 63.872C408.375 64.1067 407.287 64.224 406.114 64.224C404.962 64.224 403.831 64.1067 402.722 63.872C401.634 63.616 400.599 63.2533 399.618 62.784C398.636 62.3147 397.719 61.728 396.866 61.024L398.242 58.592C398.583 58.9547 399.02 59.3173 399.554 59.68C400.108 60.0213 400.727 60.3413 401.41 60.64C402.114 60.9387 402.871 61.184 403.682 61.376C404.492 61.5467 405.324 61.632 406.178 61.632C407.799 61.632 409.058 61.344 409.954 60.768C410.85 60.1707 411.298 59.3067 411.298 58.176C411.298 57.3227 411.042 56.64 410.53 56.128C410.039 55.616 409.303 55.1893 408.322 54.848C407.34 54.5067 406.146 54.1653 404.738 53.824C403.202 53.44 401.911 53.024 400.866 52.576C399.82 52.1067 399.031 51.4987 398.498 50.752C397.986 50.0053 397.73 49.0347 397.73 47.84C397.73 46.3893 398.082 45.1627 398.786 44.16C399.49 43.1573 400.46 42.4 401.698 41.888C402.935 41.376 404.332 41.12 405.89 41.12C406.914 41.12 407.863 41.2267 408.738 41.44C409.634 41.6533 410.466 41.952 411.234 42.336C412.002 42.72 412.706 43.1787 413.346 43.712L412.002 46.048Z" fill="white"/>
<defs>
<filter id="filter0_d_47_1993" x="19.8971" y="35.0693" width="23" height="46.6687" filterUnits="userSpaceOnUse" color-interpolation-filters="sRGB">
<feFlood flood-opacity="0" result="BackgroundImageFix"/>
<feColorMatrix in="SourceAlpha" type="matrix" values="0 0 0 0 0 0 0 0 0 0 0 0 0 0 0 0 0 0 127 0" result="hardAlpha"/>
<feOffset dy="10"/>
<feGaussianBlur stdDeviation="5"/>
<feComposite in2="hardAlpha" operator="out"/>
<feColorMatrix type="matrix" values="0 0 0 0 0 0 0 0 0 0 0 0 0 0 0 0 0 0 0.25 0"/>
<feBlend mode="normal" in2="BackgroundImageFix" result="effect1_dropShadow_47_1993"/>
<feBlend mode="normal" in="SourceGraphic" in2="effect1_dropShadow_47_1993" result="shape"/>
</filter>
<filter id="filter1_d_47_1993" x="71.7138" y="35.0693" width="23" height="46.6687" filterUnits="userSpaceOnUse" color-interpolation-filters="sRGB">
<feFlood flood-opacity="0" result="BackgroundImageFix"/>
<feColorMatrix in="SourceAlpha" type="matrix" values="0 0 0 0 0 0 0 0 0 0 0 0 0 0 0 0 0 0 127 0" result="hardAlpha"/>
<feOffset dy="10"/>
<feGaussianBlur stdDeviation="5"/>
<feComposite in2="hardAlpha" operator="out"/>
<feColorMatrix type="matrix" values="0 0 0 0 0 0 0 0 0 0 0 0 0 0 0 0 0 0 0.25 0"/>
<feBlend mode="normal" in2="BackgroundImageFix" result="effect1_dropShadow_47_1993"/>
<feBlend mode="normal" in="SourceGraphic" in2="effect1_dropShadow_47_1993" result="shape"/>
</filter>
<filter id="filter2_d_47_1993" x="33.1608" y="27.6062" width="23" height="61.5596" filterUnits="userSpaceOnUse" color-interpolation-filters="sRGB">
<feFlood flood-opacity="0" result="BackgroundImageFix"/>
<feColorMatrix in="SourceAlpha" type="matrix" values="0 0 0 0 0 0 0 0 0 0 0 0 0 0 0 0 0 0 127 0" result="hardAlpha"/>
<feOffset dy="10"/>
<feGaussianBlur stdDeviation="5"/>
<feComposite in2="hardAlpha" operator="out"/>
<feColorMatrix type="matrix" values="0 0 0 0 0 0 0 0 0 0 0 0 0 0 0 0 0 0 0.25 0"/>
<feBlend mode="normal" in2="BackgroundImageFix" result="effect1_dropShadow_47_1993"/>
<feBlend mode="normal" in="SourceGraphic" in2="effect1_dropShadow_47_1993" result="shape"/>
</filter>
<filter id="filter3_d_47_1993" x="46" y="20.0193" width="23" height="76.7507" filterUnits="userSpaceOnUse" color-interpolation-filters="sRGB">
<feFlood flood-opacity="0" result="BackgroundImageFix"/>
<feColorMatrix in="SourceAlpha" type="matrix" values="0 0 0 0 0 0 0 0 0 0 0 0 0 0 0 0 0 0 127 0" result="hardAlpha"/>
<feOffset dy="10"/>
<feGaussianBlur stdDeviation="5"/>
<feComposite in2="hardAlpha" operator="out"/>
<feColorMatrix type="matrix" values="0 0 0 0 0 0 0 0 0 0 0 0 0 0 0 0 0 0 0.25 0"/>
<feBlend mode="normal" in2="BackgroundImageFix" result="effect1_dropShadow_47_1993"/>
<feBlend mode="normal" in="SourceGraphic" in2="effect1_dropShadow_47_1993" result="shape"/>
</filter>
<filter id="filter4_d_47_1993" x="58.8215" y="0" width="23" height="89.1655" filterUnits="userSpaceOnUse" color-interpolation-filters="sRGB">
<feFlood flood-opacity="0" result="BackgroundImageFix"/>
<feColorMatrix in="SourceAlpha" type="matrix" values="0 0 0 0 0 0 0 0 0 0 0 0 0 0 0 0 0 0 127 0" result="hardAlpha"/>
<feOffset dy="10"/>
<feGaussianBlur stdDeviation="5"/>
<feComposite in2="hardAlpha" operator="out"/>
<feColorMatrix type="matrix" values="0 0 0 0 0 0 0 0 0 0 0 0 0 0 0 0 0 0 0.25 0"/>
<feBlend mode="normal" in2="BackgroundImageFix" result="effect1_dropShadow_47_1993"/>
<feBlend mode="normal" in="SourceGraphic" in2="effect1_dropShadow_47_1993" result="shape"/>
</filter>
<filter id="filter5_d_47_1993" x="0.5" y="2.42749" width="111" height="67.4583" filterUnits="userSpaceOnUse" color-interpolation-filters="sRGB">
<feFlood flood-opacity="0" result="BackgroundImageFix"/>
<feColorMatrix in="SourceAlpha" type="matrix" values="0 0 0 0 0 0 0 0 0 0 0 0 0 0 0 0 0 0 127 0" result="hardAlpha"/>
<feOffset dy="10"/>
<feGaussianBlur stdDeviation="5"/>
<feComposite in2="hardAlpha" operator="out"/>
<feColorMatrix type="matrix" values="0 0 0 0 0 0 0 0 0 0 0 0 0 0 0 0 0 0 0.25 0"/>
<feBlend mode="normal" in2="BackgroundImageFix" result="effect1_dropShadow_47_1993"/>
<feBlend mode="normal" in="SourceGraphic" in2="effect1_dropShadow_47_1993" result="shape"/>
</filter>
</defs>
</svg>
