<svg width="12" height="12" viewBox="0 0 12 12" fill="none" xmlns="http://www.w3.org/2000/svg">
<rect x="0.25" y="0.25" width="11.5" height="11.5" rx="0.75" stroke="#013984" stroke-width="0.5"/>
<path d="M2.82322 8.17678C2.92085 8.27441 3.07915 8.27441 3.17678 8.17678L4.76777 6.58579C4.8654 6.48816 4.8654 6.32986 4.76777 6.23223C4.67014 6.1346 4.51184 6.1346 4.41421 6.23223L3 7.64645L1.58579 6.23223C1.48816 6.1346 1.32986 6.1346 1.23223 6.23223C1.1346 6.32986 1.1346 6.48816 1.23223 6.58579L2.82322 8.17678ZM3.17678 1.82322C3.07915 1.72559 2.92085 1.72559 2.82322 1.82322L1.23223 3.41421C1.1346 3.51184 1.1346 3.67014 1.23223 3.76777C1.32986 3.8654 1.48816 3.8654 1.58579 3.76777L3 2.35355L4.41421 3.76777C4.51184 3.8654 4.67014 3.8654 4.76777 3.76777C4.8654 3.67014 4.8654 3.51184 4.76777 3.41421L3.17678 1.82322ZM3 8H3.25L3.25 2H3H2.75L2.75 8H3Z" fill="#013984"/>
<path d="M4.82322 8.82322C4.72559 8.92085 4.72559 9.07915 4.82322 9.17678L6.41421 10.7678C6.51184 10.8654 6.67014 10.8654 6.76777 10.7678C6.8654 10.6701 6.8654 10.5118 6.76777 10.4142L5.35355 9L6.76777 7.58579C6.8654 7.48816 6.8654 7.32986 6.76777 7.23223C6.67014 7.1346 6.51184 7.1346 6.41421 7.23223L4.82322 8.82322ZM10.1768 9.17678C10.2744 9.07915 10.2744 8.92085 10.1768 8.82322L8.58579 7.23223C8.48816 7.1346 8.32986 7.1346 8.23223 7.23223C8.1346 7.32986 8.1346 7.48816 8.23223 7.58579L9.64645 9L8.23223 10.4142C8.1346 10.5118 8.1346 10.6701 8.23223 10.7678C8.32986 10.8654 8.48816 10.8654 8.58579 10.7678L10.1768 9.17678ZM5 9V9.25H10V9V8.75H5V9Z" fill="#013984"/>
</svg>
