<svg width="21" height="21" viewBox="0 0 21 21" fill="none" xmlns="http://www.w3.org/2000/svg">
<path fill-rule="evenodd" clip-rule="evenodd" d="M2.468 1.84179C3.694 0.550786 5.722 0.791786 6.736 2.22579L7.996 4.00979C8.807 5.15679 8.739 6.74979 7.771 7.76979L7.526 8.02679L7.524 8.03279C7.511 8.06879 7.479 8.18479 7.511 8.40479C7.578 8.85979 7.929 9.78578 9.357 11.2888C10.789 12.7968 11.657 13.1518 12.06 13.2178C12.1571 13.2399 12.2581 13.2375 12.354 13.2108L12.762 12.7808C13.636 11.8608 14.998 11.6798 16.097 12.3118L18.007 13.4118C19.64 14.3518 20.02 16.6508 18.715 18.0248L17.295 19.5198C16.852 19.9868 16.247 20.3858 15.5 20.4598C13.676 20.6398 9.451 20.4048 5.022 15.7408C0.888001 11.3898 0.103001 7.60479 0.00400125 5.75579C-0.0449987 4.84179 0.362001 4.05879 0.898001 3.49379L2.468 1.84179ZM5.511 3.09179C4.999 2.36779 4.078 2.32379 3.555 2.87479L1.985 4.52679C1.655 4.87679 1.48 5.27679 1.502 5.67579C1.582 7.18579 2.233 10.6278 6.109 14.7078C10.173 18.9878 13.918 19.1078 15.353 18.9668C15.636 18.9388 15.928 18.7808 16.207 18.4868L17.627 16.9918C18.241 16.3458 18.08 15.1838 17.259 14.7118L15.349 13.6118C14.836 13.3168 14.235 13.4078 13.85 13.8138L13.394 14.2938L12.867 13.7928C13.394 14.2928 13.394 14.2938 13.393 14.2948L13.392 14.2958L13.389 14.2998L13.382 14.3058L13.368 14.3198C13.3261 14.361 13.2805 14.3985 13.232 14.4318C13.152 14.4878 13.046 14.5508 12.911 14.6038C12.635 14.7128 12.271 14.7708 11.82 14.6978C10.942 14.5558 9.792 13.9248 8.27 12.3218C6.742 10.7138 6.157 9.51479 6.027 8.62179C5.96 8.16779 6.013 7.80479 6.111 7.52979C6.16552 7.37659 6.24308 7.2326 6.341 7.10279L6.371 7.06579L6.385 7.05079L6.391 7.04379L6.394 7.04079L6.396 7.03979C6.396 7.03979 6.396 7.03779 6.929 7.54279L6.397 7.03779L6.684 6.73579C7.129 6.26679 7.194 5.47279 6.772 4.87579L5.511 3.09179Z" fill="#013984"/>
<path d="M11.0099 0.629776C11.0257 0.532518 11.0605 0.439326 11.1124 0.355524C11.1642 0.271722 11.232 0.198954 11.312 0.141376C11.3919 0.0837986 11.4824 0.0425408 11.5784 0.0199602C11.6743 -0.00262032 11.7737 -0.00608106 11.8709 0.00977581C11.8959 0.0147758 11.9779 0.0297758 12.0209 0.0397758C12.1069 0.0577758 12.2243 0.0877758 12.3729 0.129776C12.6699 0.216776 13.0849 0.359776 13.5829 0.587776C14.5789 1.04478 15.9039 1.84378 17.2799 3.21878C18.6559 4.59478 19.4549 5.92078 19.9119 6.91678C20.1399 7.41478 20.2819 7.82878 20.3689 8.12678C20.4125 8.27658 20.4502 8.42803 20.4819 8.58078L20.4869 8.61178C20.5199 8.80981 20.4736 9.01285 20.3582 9.17711C20.2428 9.34136 20.0674 9.45366 19.8699 9.48978C19.6741 9.52157 19.4737 9.4745 19.3125 9.35886C19.1513 9.24323 19.0425 9.06845 19.0099 8.87278C18.9891 8.76235 18.962 8.65317 18.9289 8.54578C18.8267 8.20235 18.6997 7.8668 18.5489 7.54178C18.1589 6.69178 17.4569 5.51778 16.2189 4.27978C14.9809 3.04178 13.8079 2.34078 12.9569 1.95078C12.6322 1.80001 12.297 1.67301 11.9539 1.57078C11.8487 1.54122 11.7426 1.51454 11.6359 1.49078C11.4396 1.45783 11.2641 1.34918 11.147 1.18818C11.03 1.02718 10.9807 0.82668 11.0099 0.629776Z" fill="#013984"/>
<path fill-rule="evenodd" clip-rule="evenodd" d="M11.236 4.07965C11.263 3.98489 11.3084 3.89637 11.3695 3.81915C11.4307 3.74192 11.5065 3.67751 11.5926 3.62959C11.6787 3.58168 11.7734 3.55119 11.8713 3.53987C11.9691 3.52856 12.0683 3.53664 12.163 3.56365L11.957 4.28465L12.164 3.56465H12.166L12.17 3.56565L12.177 3.56765L12.197 3.57465C12.2123 3.57865 12.2313 3.58499 12.254 3.59365C12.2987 3.60899 12.3577 3.63232 12.431 3.66365C12.576 3.72565 12.775 3.82165 13.02 3.96665C13.51 4.25665 14.177 4.73665 14.962 5.52265C15.747 6.30765 16.229 6.97565 16.518 7.46465C16.663 7.70965 16.759 7.90865 16.822 8.05465C16.8549 8.13105 16.8846 8.20879 16.911 8.28765L16.917 8.30765L16.919 8.31565L16.92 8.31865V8.32065L16.2 8.52765L16.921 8.32165C16.977 8.51261 16.9548 8.71797 16.8593 8.89257C16.7639 9.06717 16.603 9.19669 16.412 9.25265C16.2211 9.30861 16.0157 9.28643 15.8411 9.19097C15.6665 9.09551 15.537 8.93461 15.481 8.74365L15.478 8.73365L15.443 8.64565C15.3792 8.50254 15.3071 8.3633 15.227 8.22865C15.004 7.85265 14.602 7.28265 13.902 6.58265C13.202 5.88265 12.632 5.48065 12.256 5.25765C12.0941 5.16259 11.9257 5.07905 11.752 5.00765L11.742 5.00365C11.5529 4.94707 11.3938 4.81823 11.299 4.64507C11.2043 4.47191 11.1817 4.2694 11.236 4.07965Z" fill="#013984"/>
</svg>
