<svg width="34" height="34" viewBox="0 0 34 34" fill="none" xmlns="http://www.w3.org/2000/svg">
<path d="M24.7934 19.4743L20.5434 17.3493C20.4179 17.2869 20.2781 17.2587 20.1382 17.2675C19.9983 17.2764 19.8632 17.322 19.7465 17.3998L17.664 18.7877C16.6098 18.2479 15.7521 17.3902 15.2123 16.3359L16.6015 14.2548C16.6793 14.1381 16.7249 14.003 16.7338 13.8631C16.7426 13.7232 16.7144 13.5834 16.652 13.4579L14.527 9.20789C14.4609 9.07492 14.359 8.96306 14.2328 8.88492C14.1065 8.80677 13.961 8.76546 13.8125 8.76563C12.474 8.76563 11.1903 9.29735 10.2438 10.2438C9.29732 11.1903 8.7656 12.474 8.7656 13.8125C8.76912 16.8407 9.97362 19.7438 12.1149 21.8851C14.2561 24.0264 17.1593 25.2309 20.1875 25.2344C21.526 25.2344 22.8097 24.7027 23.7562 23.7562C24.7026 22.8097 25.2344 21.526 25.2344 20.1875C25.2344 20.0394 25.1932 19.8942 25.1153 19.7682C25.0374 19.6422 24.9259 19.5405 24.7934 19.4743ZM20.1875 23.6406C17.5819 23.6375 15.0839 22.601 13.2414 20.7585C11.399 18.9161 10.3625 16.4181 10.3594 13.8125C10.3594 12.9791 10.6609 12.1738 11.2082 11.5453C11.7554 10.9167 12.5115 10.5073 13.337 10.3926L15.0184 13.7554L13.6385 15.8246C13.566 15.9337 13.5215 16.0591 13.509 16.1895C13.4965 16.3199 13.5163 16.4514 13.5668 16.5723C14.2995 18.3145 15.6855 19.7004 17.4276 20.4332C17.5486 20.4836 17.6801 20.5035 17.8105 20.491C17.9409 20.4785 18.0662 20.434 18.1754 20.3615L20.2446 18.9816L23.6074 20.663C23.4926 21.4884 23.0832 22.2445 22.4547 22.7918C21.8261 23.3391 21.0209 23.6405 20.1875 23.6406ZM17 3.45313C14.6516 3.45263 12.3434 4.06264 10.3018 5.2233C8.26029 6.38396 6.55554 8.0554 5.35482 10.0736C4.15411 12.0919 3.49868 14.3876 3.45284 16.7356C3.407 19.0835 3.97232 21.4031 5.09334 23.4666L3.55005 28.0978C3.4408 28.4254 3.42494 28.777 3.50426 29.1131C3.58359 29.4492 3.75495 29.7566 3.99915 30.0008C4.24335 30.245 4.55074 30.4164 4.88686 30.4957C5.22298 30.575 5.57455 30.5592 5.90216 30.4499L10.5333 28.9066C12.3462 29.8904 14.3598 30.4473 16.4205 30.5347C18.4813 30.6221 20.5348 30.2378 22.4245 29.4111C24.3141 28.5844 25.9901 27.3371 27.3245 25.7643C28.659 24.1915 29.6166 22.3348 30.1245 20.3357C30.6324 18.3366 30.6771 16.2479 30.2552 14.2289C29.8333 12.2099 28.9559 10.314 27.6899 8.68554C26.424 7.05712 24.8029 5.73927 22.9504 4.83249C21.0978 3.9257 19.0626 3.45392 17 3.45313ZM17 28.9531C14.8988 28.9536 12.8346 28.4002 11.0154 27.3487C10.8941 27.2791 10.7569 27.242 10.617 27.2412C10.5313 27.2417 10.4461 27.2556 10.3647 27.2823L5.3988 28.9372C5.352 28.9528 5.30178 28.9551 5.25376 28.9437C5.20574 28.9324 5.16183 28.9079 5.12695 28.873C5.09206 28.8381 5.06758 28.7942 5.05625 28.7462C5.04492 28.6982 5.04718 28.648 5.06279 28.6012L6.71763 23.6406C6.75344 23.5334 6.76603 23.4199 6.75458 23.3074C6.74313 23.195 6.7079 23.0863 6.65123 22.9885C5.33274 20.7109 4.80276 18.0618 5.14353 15.4523C5.48429 12.8427 6.67674 10.4186 8.53587 8.55589C10.395 6.69322 12.8169 5.49617 15.4258 5.15046C18.0347 4.80475 20.6848 5.32969 22.9649 6.64385C25.245 7.95802 27.0277 9.98793 28.0363 12.4187C29.045 14.8494 29.2233 17.5451 28.5435 20.0875C27.8637 22.6299 26.3639 24.8769 24.2767 26.4799C22.1896 28.0829 19.6317 28.9523 17 28.9531Z" fill="white"/>
</svg>
